# xmcd CD database file
#
# Track frame offsets:
#	150
#	12758
#	26728
#	39538
#	52063
#	64908
#	77777
#	90101
#	103740
#	115010
#	129324
#	142300
#	154671
#	167374
#	180148
#	192946
#	205744
#	218175
#	231032
#	243001
#
# Disc length: 3409 seconds
#
# Revision: 0
# Processed by: cddbd v1.5.1PL0 Copyright (c) Steve Scherf et al.
# Submitted via: CDex 1.51
#
DISCID=fe0d4f14
DTITLE=Jelly Roll Morton - Quadromania Jazz [CD 4)
DYEAR=2005
DGENRE=Jazz
TTITLE0=Animule Dance
TTITLE1=The Crave
TTITLE2=Mister Joe
TTITLE3=Buddy Bolden's Blues
TTITLE4=Don't You Leave Me Here
TTITLE5=The Naked Dance
TTITLE6=Mamie's Blues
TTITLE7=Michigan Water Blues
TTITLE8=Panama
TTITLE9=Big Lip Blues
TTITLE10=Sweet Substitute
TTITLE11=Good Old New
TTITLE12=Why?
TTITLE13=Shake It
TTITLE14=Get The Bücket
TTITLE15=IfYou Knew
TTITLE16=My Home Is In A Southern Town
TTITLE17=Dirty, Dirty, Dirty
TTITLE18=Mamas Got A Baby
TTITLE19=Swinging The Elks
EXTD=YEAR: 2005
EXTT0=
EXTT1=
EXTT2=
EXTT3=
EXTT4=
EXTT5=
EXTT6=
EXTT7=
EXTT8=
EXTT9=
EXTT10=
EXTT11=
EXTT12=
EXTT13=
EXTT14=
EXTT15=
EXTT16=
EXTT17=
EXTT18=
EXTT19=
PLAYORDER=
